<?xml version="1.0" encoding="UTF-8"?>
<!DOCTYPE svg PUBLIC "-//W3C//DTD SVG 1.1//EN" "http://www.w3.org/Graphics/SVG/1.1/DTD/svg11.dtd">
<svg xmlns="http://www.w3.org/2000/svg" version="1.1" width="192px" height="192px" style="shape-rendering:geometricPrecision; text-rendering:geometricPrecision; image-rendering:optimizeQuality; fill-rule:evenodd; clip-rule:evenodd" xmlns:xlink="http://www.w3.org/1999/xlink">
<g><path style="opacity:0.96" fill="#fe9e15" d="M 84.5,6.5 C 123.355,5.26164 151.189,21.9283 168,56.5C 175.284,77.1981 175.284,97.8647 168,118.5C 166.237,123.041 163.737,127.041 160.5,130.5C 157.431,110.764 146.098,99.4312 126.5,96.5C 126.5,95.5 126.5,94.5 126.5,93.5C 132.5,93.5 138.5,93.5 144.5,93.5C 145.237,67.0896 133.571,48.5896 109.5,38C 76.8726,30.0623 54.3726,41.5623 42,72.5C 35.4036,104.143 46.9036,126.309 76.5,139C 82.0764,140.485 87.7431,141.318 93.5,141.5C 92.6381,136.187 92.4715,130.854 93,125.5C 93.7175,124.549 94.5509,124.383 95.5,125C 102.991,138.161 113.824,147.327 128,152.5C 152.174,155.746 171.841,166.746 187,185.5C 187.49,186.793 187.657,188.127 187.5,189.5C 185.801,189.66 184.134,189.494 182.5,189C 167.525,174.35 149.525,167.183 128.5,167.5C 112.529,169.052 96.5289,169.552 80.5,169C 41.3294,161.829 18.1627,138.663 11,99.5C 7.78074,57.0816 25.6141,27.5816 64.5,11C 71.2013,9.02969 77.868,7.52969 84.5,6.5 Z"/></g>
<g><path style="opacity:0.818" fill="#fe9e15" d="M 148.5,120.5 C 153.645,121.899 156.311,125.399 156.5,131C 156.233,134.164 154.567,135.164 151.5,134C 146.997,130.052 145.997,125.552 148.5,120.5 Z"/></g>
<g><path style="opacity:0.868" fill="#fe9e15" d="M 130.5,134.5 C 137.289,133.956 141.623,136.956 143.5,143.5C 143.11,147.389 140.944,149.389 137,149.5C 131.155,148.989 127.989,145.822 127.5,140C 127.613,137.601 128.613,135.768 130.5,134.5 Z"/></g>
</svg>
